# xmcd
#
# Track frame offsets:
#	150
#	18357
#	43278
#	84799
#	100300
#	120281
#	145215
#	170375
#	204533
#	228500
#	256448
#	276948
#	299139
#
# Disc length: 4550 seconds
#
# Revision: 0
# Processed by: cddbd v1.5.1PL2 Copyright (c) Steve Scherf et al.
# Submitted via: dBpowerAMP V4.0
#
DISCID=bb11c40d
DTITLE=Blues Disciples, The - Live at the Big Bend Blues Bash
DYEAR=2005
DGENRE=blues
TTITLE0=Dog House Blues
TTITLE1=I Need Money
TTITLE2=Love Her With A Feeling
TTITLE3=Whammer Jammer
TTITLE4=Walkin' By Myself
TTITLE5=Too Many Drivers
TTITLE6=Build Me A Woman
TTITLE7=Allergic To Work
TTITLE8=Dead Shrimp Blues
TTITLE9=Jammin' In The Jungle
TTITLE10=Highway 49
TTITLE11=Highway 61
TTITLE12=Willie's Boogie, A Tribute to Will Ainsworth
EXTD=
EXTT0=
EXTT1=
EXTT2=
EXTT3=
EXTT4=
EXTT5=
EXTT6=
EXTT7=
EXTT8=
EXTT9=
EXTT10=
EXTT11=
EXTT12=
PLAYORDER=
